<svg xmlns="http://www.w3.org/2000/svg" viewBox="0 0 812.86 549.5"><g id="Layer_2" data-name="Layer 2"><g id="Layer_1-2" data-name="Layer 1"><path d="M64.54,102.73c-5.46,38.7-7.22,78.3-.92,117,1.49,9.5,3.62,19.53,9.94,27.09A34,34,0,0,1,71,241.89s0,0,0,.05a56.23,56.23,0,0,1-3.5-13.75s0,.05,0,.07c-4.5-41.69-2-83.78-3-125.53m3,125.53,0,.23,0-.23"/><path d="M116.09,0c-10.56,49-8.9,99.53-10.08,149.39-.34,64.73.2,129.53,5.18,194.1.55,6.13.81,12.42,1.61,18.45-.22-4.43-.13-8.87-.2-13.31-.6-60.21-3.3-120.37-1.37-180.59.13-56,5-112.06,4.86-168"/><path d="M546.84,249.59l-.79.14h0c-47.66,3.6-94.44,13.71-141.67,20.55-83.23,13.05-166.76,24.17-249.88,37.83-36.78,6.2-73.68,12.2-109.84,21.37-14.54,4-29.64,7.33-42.85,14.81-5.72,5.76,3.6,6,7.64,4.87a110.54,110.54,0,0,0,15.4-4.82c-6.6,1-13.28,3.31-20,2.46,75-23.7,153.54-33,231-45.27,103.59-17,209.12-26.37,311-51.94m-.79.14h0"/><path d="M698.89,150.9c-69.4,5.59-138.28,17.59-206.12,33.18-17,2.22-78.09,26.28-87.32,15.11-4.23-6.06,10.61-22.29,2-24.41-5.48.69-8.27,7.51-12.19,10.95-9.56,10.91-19.17,21.86-29.78,31.76-4,5.4-32.34,23.88-27.28,6.43.37-5.85,44.18-46.11,20.63-39.47-11.1,10.06-17.17,24.29-27.6,34.82-11.86,10.37-22.7,23.91-38,29.1-13.49,1.53,20.29-49.65,23.49-55.47,1.37-2,3.35-3.94,3.66-6.39a3,3,0,0,0-5.12-2.11c-6.69,9.68-13.41,19.26-21.81,27.64-14.54,16.09-31.13,30.4-48.22,43.7l.14-.11c-2.91,2.22-5.88,4.34-9,6.31,60.5-66.44-5-65.28-28.89-7.05,1.94-10.21,8.69-18.78,13.64-27.61-17.93,15.2-35.92,52.55,3.9,46.06,27.56-11.61,49.35-35.56,70.2-56.49-6.36,10.8-24.52,43.65,2.46,37.2,13-5.63,23.21-16.21,33.49-25.71,12.69,31.06,58.38-27.88,69.38-39.91-10.31,33.12,37.56,16,53.5,11.86,18.19-4.53,36.43-9.71,54.78-13.63,59.61-15,132.34-20.52,190-35.76M404.82,195.8l-.08.62c0-.2.05-.41.08-.62m.83,3.67.14.18-.14-.18m15.2,2.47-.23,0,.23,0m-.37,0-.43.07.43-.07M214,267c-11.05-12.89,25.52-51.78,39.63-49.76,10.22,6.76-28.16,53-39.62,49.77h0m39.73-49.72a3.38,3.38,0,0,1,.52.22l-.52-.22m.94.58c.13.15.25.31.37.47l-.37-.47m82.5,10.35a.89.89,0,0,1,0,.15s0-.09,0-.15m.64,1.61.28.36a3.44,3.44,0,0,1-.28-.36m-30.8,11-.1.08.1-.08m-.25.19-.2.16.2-.16m-16.82,3.62c0,.07,0,.14,0,.21s0-.14,0-.21m-.56,2c0,.11.09.21.13.32,0-.11-.09-.21-.13-.32m.11.48.12.16-.12-.16m.26.48.17.13-.17-.13m.91.57.23.09-.23-.09m-44.85,7.12-.26.2.26-.2"/><path d="M245.42,255.63l0,0,0,0"/><path d="M708.28,132.79l-.8.43,1.64-.36A7.93,7.93,0,0,0,708.28,132.79Z"/><path d="M312.84,325.68C257.34,337.32,207.5,391.23,182.13,440c-13.32,27.71-24.37,61.07-14,91.41C194.3,566.17,250,542.51,282.44,529c42.62-20.27,83.25-44.94,123-70.09-59.72,29.39-115,72-181.27,85.39h.09l-.49.06.28,0c-41.35,5.22-62.84-7.54-55.49-51.72l0,.21.06-.46a1,1,0,0,1,0,.17c8.67-54.51,45.08-100.89,87.6-134.25,19.52-15.87,78.65-49.58,91.8-13,0,0,0-.07,0-.11,1,2.55,2,5.27,3,7.75-2.52-22.53-16.16-31.58-38.1-27.22M256,358.4l-.16.13.16-.13m-48.8,48.7-.11.15.11-.15m-27.87,47.8a.61.61,0,0,0-.05.12.61.61,0,0,1,.05-.12M277,527.4l-.16.07.16-.07m-104.24,5a.76.76,0,0,0,.08.11.76.76,0,0,1-.08-.11m3.93,3.87.3.23-.3-.23m8.65,5.08.19.07-.19-.07m38.77,3h0m-55.48-51.78s0,0,0,.06,0-.06,0-.08v0"/><path d="M509.75,258.71c-1,.25-1.66,1.11-2.49,1.68l.65-.5c-10.91,9-15.81,23.3-23.47,34.89-11.09,19.57-20.29,40.13-28.55,61-4.82,12.34-8.82,25.05-12.77,37.69-8.69,13.23-15.36,27.67-24,40.88,1-2.12,2.33-4.27,3.38-6.32-1.16,1.45-2.31,2.9-3.44,4.37l0,0c-1.34,1.87-3,3.59-4,5.69-.29,1.53,1.35,2.74,2.48,1.36l-.16.13c8.68-6.36,13.78-16.32,19.88-25-5.25,24.53-14.39,50.59-10.46,75.7,11.66,13.77,26.3-10.67,33.46-18.87,27.22-35.62,45.23-77.32,71.66-113.35-1.24,31.52-16.48,60.66-24.25,90.89-8.39,39.43,55.75-29,63.41-35,68.64-67.53,36-5.82,79-18.11,20.57-6.31,38.55-18.65,57.55-28.44,31.22-17.16,62.45-34.5,91.58-55.07,4.59-3.24,9.35-6.5,13.69-10-3.87,2-7.81,3.93-11.71,5.89C761.45,328.21,723.45,352.52,684,373c-15.21,7.29-32,20.35-49.45,17.58-6.63-8.58-15.8-19.32-27.7-12.84-19,8.93-32.55,26-48.08,39.61-14.82,12.92-28.38,28.42-46,37.54.54-14.72,40.23-102.55,18.91-103.28-11.22,5.14-25,35.51-32.76,46.87-14,24-28.1,48.12-44.75,70.45-23.89,31.15-25,20.22-19.69-11.72,3.17-20.71,8.84-40.94,14.45-61.1,15.17-24.76,31.14-49.14,43.67-75.38,2.55-7,32.24-64.64,17.13-62.05m-24.13,47c6.53-11.85,13.31-23.7,20.64-35.07-12,35.3-29.15,68.54-49,100,7.55-22.43,17.55-43.94,28.4-64.94m45.84,51.25.14.18-.14-.18m-.09.6a3,3,0,0,1,.43.06l-.43-.06m89.75,27.16.18.15-.18-.15m37.34,1.41-.24.1.24-.1M642.53,391l-.66.09.66-.09M526.12,446.36l-.29.22.29-.22m-.29.22-.33.25.33-.25m-14.6,8.65.12,0-.12,0M432.4,487.06a.69.69,0,0,1,0,.1,1,1,0,0,1,0-.1m.28.54.3.38a3.57,3.57,0,0,1-.3-.38m2.12.45-.19,0,.19,0"/></g></g></svg>